blackcompressed.ufo
<glyph name="exclam" format="1">
  <advance width="228"/>
  <unicode hex="0021"/>
  <outline>
    <contour>
      <point x="198" y="18"/>
      <point x="30" y="18"/>
      <point x="198" y="18" type="curve"/>
      <point x="198" y="66"/>
      <point x="163" y="90"/>
      <point x="113" y="90" type="curve"/>
      <point x="64" y="90"/>
      <point x="30" y="63"/>
      <point x="30" y="18" type="curve"/>
      <point x="198" y="18"/>
      <point x="30" y="18"/>
      <point x="198" y="18" type="curve"/>
      <point x="198" y="-31"/>
      <point x="163" y="-53"/>
      <point x="113" y="-53" type="curve"/>
      <point x="63" y="-53"/>
      <point x="30" y="-29"/>
      <point x="30" y="18" type="curve"/>
    </contour>
    <contour>
      <point x="185" y="229"/>
      <point x="42" y="229"/>
      <point x="185" y="229" type="curve"/>
      <point x="185" y="393"/>
      <point x="185" y="558"/>
      <point x="185" y="722" type="curve"/>
      <point x="42" y="722"/>
      <point x="185" y="722"/>
      <point x="42" y="722" type="curve"/>
      <point x="42" y="558"/>
      <point x="42" y="393"/>
      <point x="42" y="229" type="curve"/>
    </contour>
  </outline>
</glyph>
<glyph name="numbersign" format="1">
  <advance width="542"/>
  <unicode hex="0023"/>
  <outline>
    <contour>
      <point x="40" y="214"/>
      <point x="73" y="324"/>
      <point x="40" y="214" type="curve"/>
      <point x="162" y="214"/>
      <point x="284" y="214"/>
      <point x="407" y="214" type="curve"/>
      <point x="433" y="324"/>
      <point x="407" y="214"/>
      <point x="433" y="324" type="curve"/>
      <point x="313" y="324"/>
      <point x="193" y="324"/>
      <point x="73" y="324" type="curve"/>
    </contour>
    <contour>
      <point x="98" y="428"/>
      <point x="130" y="538"/>
      <point x="98" y="428" type="curve"/>
      <point x="220" y="428"/>
      <point x="342" y="428"/>
      <point x="464" y="428" type="curve"/>
      <point x="490" y="538"/>
      <point x="464" y="428"/>
      <point x="490" y="538" type="curve"/>
      <point x="370" y="538"/>
      <point x="250" y="538"/>
      <point x="130" y="538" type="curve"/>
    </contour>
    <contour>
      <point x="349" y="39"/>
      <point x="206" y="39"/>
      <point x="349" y="39" type="curve"/>
      <point x="349" y="39"/>
      <point x="512" y="722"/>
      <point x="512" y="722" type="curve"/>
      <point x="369" y="722"/>
      <point x="512" y="722"/>
      <point x="369" y="722" type="curve"/>
      <point x="369" y="722"/>
      <point x="206" y="39"/>
      <point x="206" y="39" type="curve"/>
    </contour>
    <contour>
      <point x="167" y="46"/>
      <point x="30" y="46"/>
      <point x="167" y="46" type="curve"/>
      <point x="167" y="46"/>
      <point x="329" y="722"/>
      <point x="329" y="722" type="curve"/>
      <point x="186" y="722"/>
      <point x="329" y="722"/>
      <point x="186" y="722" type="curve"/>
      <point x="186" y="722"/>
      <point x="30" y="46"/>
      <point x="30" y="46" type="curve"/>
    </contour>
  </outline>
</glyph>
<glyph name="hyphen" format="1">
  <advance width="279"/>
  <unicode hex="002D"/>
  <outline>
    <contour>
      <point x="30" y="211"/>
      <point x="30" y="333"/>
      <point x="30" y="211" type="curve"/>
      <point x="103" y="211"/>
      <point x="175" y="211"/>
      <point x="248" y="211" type="curve"/>
      <point x="248" y="333"/>
      <point x="248" y="211"/>
      <point x="248" y="333" type="curve"/>
      <point x="175" y="333"/>
      <point x="103" y="333"/>
      <point x="30" y="333" type="curve"/>
    </contour>
  </outline>
</glyph>
<glyph name="colon" format="1">
  <advance width="228"/>
  <unicode hex="003A"/>
  <outline>
    <contour>
      <point x="198" y="18"/>
      <point x="30" y="18"/>
      <point x="198" y="18" type="curve"/>
      <point x="198" y="66"/>
      <point x="163" y="90"/>
      <point x="113" y="90" type="curve"/>
      <point x="64" y="90"/>
      <point x="30" y="63"/>
      <point x="30" y="18" type="curve"/>
      <point x="198" y="18"/>
      <point x="30" y="18"/>
      <point x="198" y="18" type="curve"/>
      <point x="198" y="-31"/>
      <point x="163" y="-53"/>
      <point x="113" y="-53" type="curve"/>
      <point x="63" y="-53"/>
      <point x="30" y="-29"/>
      <point x="30" y="18" type="curve"/>
    </contour>
    <contour>
      <point x="198" y="410"/>
      <point x="30" y="410"/>
      <point x="198" y="410" type="curve"/>
      <point x="198" y="458"/>
      <point x="163" y="482"/>
      <point x="113" y="482" type="curve"/>
      <point x="64" y="482"/>
      <point x="30" y="455"/>
      <point x="30" y="410" type="curve"/>
      <point x="198" y="410"/>
      <point x="30" y="410"/>
      <point x="198" y="410" type="curve"/>
      <point x="198" y="361"/>
      <point x="163" y="339"/>
      <point x="113" y="339" type="curve"/>
      <point x="63" y="339"/>
      <point x="30" y="363"/>
      <point x="30" y="410" type="curve"/>
    </contour>
  </outline>
</glyph>
<glyph name="D" format="1">
  <advance width="646"/>
  <unicode hex="0044"/>
  <outline>
    <contour>
      <point x="167" y="110"/>
      <point x="167" y="0"/>
      <point x="167" y="110" type="curve"/>
      <point x="30" y="110"/>
      <point x="167" y="110"/>
      <point x="30" y="110" type="curve"/>
      <point x="30" y="0"/>
      <point x="30" y="110"/>
      <point x="30" y="0" type="curve"/>
      <point x="76" y="0"/>
      <point x="122" y="0"/>
      <point x="167" y="0" type="curve"/>
    </contour>
    <contour>
      <point x="167" y="722"/>
      <point x="167" y="612"/>
      <point x="167" y="722" type="curve"/>
      <point x="122" y="722"/>
      <point x="76" y="722"/>
      <point x="30" y="722" type="curve"/>
      <point x="30" y="612"/>
      <point x="30" y="722"/>
      <point x="30" y="612" type="curve"/>
      <point x="167" y="612"/>
      <point x="30" y="612"/>
      <point x="167" y="612" type="curve"/>
    </contour>
    <contour>
      <point x="94" y="722"/>
      <point x="237" y="722"/>
      <point x="94" y="722" type="curve"/>
      <point x="94" y="481"/>
      <point x="94" y="241"/>
      <point x="94" y="0" type="curve"/>
      <point x="237" y="0"/>
      <point x="94" y="0"/>
      <point x="237" y="0" type="curve"/>
      <point x="237" y="241"/>
      <point x="237" y="481"/>
      <point x="237" y="722" type="curve"/>
    </contour>
    <contour>
      <point x="167" y="0"/>
      <point x="167" y="110"/>
      <point x="167" y="0" type="curve"/>
      <point x="215" y="0"/>
      <point x="263" y="0"/>
      <point x="312" y="0" type="curve"/>
      <point x="521" y="0"/>
      <point x="616" y="134"/>
      <point x="616" y="354" type="curve"/>
      <point x="616" y="581"/>
      <point x="524" y="722"/>
      <point x="310" y="722" type="curve"/>
      <point x="263" y="722"/>
      <point x="215" y="722"/>
      <point x="167" y="722" type="curve"/>
      <point x="167" y="612"/>
      <point x="167" y="722"/>
      <point x="167" y="612" type="curve"/>
      <point x="213" y="612"/>
      <point x="258" y="612"/>
      <point x="304" y="612" type="curve"/>
      <point x="440" y="612"/>
      <point x="473" y="502"/>
      <point x="473" y="348" type="curve"/>
      <point x="473" y="210"/>
      <point x="446" y="110"/>
      <point x="325" y="110" type="curve"/>
      <point x="272" y="110"/>
      <point x="220" y="110"/>
      <point x="167" y="110" type="curve"/>
    </contour>
  </outline>
</glyph>
<glyph name="G" format="1">
  <advance width="620"/>
  <unicode hex="0047"/>
  <outline>
    <contour>
      <point x="466" y="645"/>
      <point x="578" y="645"/>
      <point x="466" y="645" type="curve"/>
      <point x="466" y="525"/>
      <point x="466" y="645"/>
      <point x="466" y="525" type="curve"/>
      <point x="578" y="525"/>
      <point x="466" y="525"/>
      <point x="578" y="525" type="curve"/>
      <point x="578" y="645"/>
      <point x="578" y="525"/>
      <point x="578" y="645" type="curve"/>
    </contour>
    <contour>
      <point x="553" y="370"/>
      <point x="553" y="260"/>
      <point x="553" y="370" type="curve"/>
      <point x="498" y="370"/>
      <point x="443" y="370"/>
      <point x="388" y="370" type="curve"/>
      <point x="388" y="260"/>
      <point x="388" y="370"/>
      <point x="388" y="260" type="curve"/>
      <point x="443" y="260"/>
      <point x="498" y="260"/>
      <point x="553" y="260" type="curve"/>
    </contour>
    <contour>
      <point x="591" y="79"/>
      <point x="461" y="79"/>
      <point x="591" y="79" type="curve"/>
      <point x="591" y="176"/>
      <point x="591" y="273"/>
      <point x="591" y="370" type="curve"/>
      <point x="461" y="370"/>
      <point x="591" y="370"/>
      <point x="461" y="370" type="curve"/>
      <point x="461" y="273"/>
      <point x="461" y="176"/>
      <point x="461" y="79" type="curve"/>
    </contour>
    <contour>
      <point x="578" y="645"/>
      <point x="506" y="551"/>
      <point x="578" y="645" type="curve"/>
      <point x="504" y="702"/>
      <point x="432" y="727"/>
      <point x="339" y="727" type="curve"/>
      <point x="133" y="727"/>
      <point x="30" y="580"/>
      <point x="30" y="360" type="curve"/>
      <point x="30" y="139"/>
      <point x="139" y="-5"/>
      <point x="347" y="-5" type="curve"/>
      <point x="446" y="-5"/>
      <point x="508" y="24"/>
      <point x="591" y="79" type="curve"/>
      <point x="519" y="162"/>
      <point x="591" y="79"/>
      <point x="519" y="162" type="curve"/>
      <point x="462" y="124"/>
      <point x="415" y="110"/>
      <point x="347" y="110" type="curve"/>
      <point x="216" y="110"/>
      <point x="173" y="222"/>
      <point x="173" y="371" type="curve"/>
      <point x="173" y="508"/>
      <point x="217" y="612"/>
      <point x="339" y="612" type="curve"/>
      <point x="405" y="612"/>
      <point x="454" y="591"/>
      <point x="506" y="551" type="curve"/>
    </contour>
  </outline>
</glyph>
<glyph name="I" format="1">
  <advance width="335"/>
  <unicode hex="0049"/>
  <outline>
    <contour>
      <point x="167" y="722"/>
      <point x="167" y="612"/>
      <point x="167" y="722" type="curve"/>
      <point x="122" y="722"/>
      <point x="76" y="722"/>
      <point x="30" y="722" type="curve"/>
      <point x="30" y="612"/>
      <point x="30" y="722"/>
      <point x="30" y="612" type="curve"/>
      <point x="167" y="612"/>
      <point x="30" y="612"/>
      <point x="167" y="612" type="curve"/>
    </contour>
    <contour>
      <point x="167" y="612"/>
      <point x="167" y="722"/>
      <point x="167" y="612" type="curve"/>
      <point x="305" y="612"/>
      <point x="167" y="612"/>
      <point x="305" y="612" type="curve"/>
      <point x="305" y="722"/>
      <point x="305" y="612"/>
      <point x="305" y="722" type="curve"/>
      <point x="259" y="722"/>
      <point x="213" y="722"/>
      <point x="167" y="722" type="curve"/>
    </contour>
    <contour>
      <point x="167" y="0"/>
      <point x="167" y="110"/>
      <point x="167" y="0" type="curve"/>
      <point x="213" y="0"/>
      <point x="259" y="0"/>
      <point x="305" y="0" type="curve"/>
      <point x="305" y="110"/>
      <point x="305" y="0"/>
      <point x="305" y="110" type="curve"/>
      <point x="167" y="110"/>
      <point x="305" y="110"/>
      <point x="167" y="110" type="curve"/>
    </contour>
    <contour>
      <point x="167" y="110"/>
      <point x="167" y="0"/>
      <point x="167" y="110" type="curve"/>
      <point x="30" y="110"/>
      <point x="167" y="110"/>
      <point x="30" y="110" type="curve"/>
      <point x="30" y="0"/>
      <point x="30" y="110"/>
      <point x="30" y="0" type="curve"/>
      <point x="76" y="0"/>
      <point x="122" y="0"/>
      <point x="167" y="0" type="curve"/>
    </contour>
    <contour>
      <point x="238" y="0"/>
      <point x="95" y="0"/>
      <point x="238" y="0" type="curve"/>
      <point x="238" y="241"/>
      <point x="238" y="481"/>
      <point x="238" y="722" type="curve"/>
      <point x="95" y="722"/>
      <point x="238" y="722"/>
      <point x="95" y="722" type="curve"/>
      <point x="95" y="481"/>
      <point x="95" y="241"/>
      <point x="95" y="0" type="curve"/>
    </contour>
  </outline>
</glyph>
<glyph name="J" format="1">
  <advance width="445"/>
  <unicode hex="004A"/>
  <outline>
    <contour>
      <point x="277" y="722"/>
      <point x="277" y="612"/>
      <point x="277" y="722" type="curve"/>
      <point x="231" y="722"/>
      <point x="185" y="722"/>
      <point x="140" y="722" type="curve"/>
      <point x="140" y="612"/>
      <point x="140" y="722"/>
      <point x="140" y="612" type="curve"/>
      <point x="277" y="612"/>
      <point x="140" y="612"/>
      <point x="277" y="612" type="curve"/>
    </contour>
    <contour>
      <point x="277" y="612"/>
      <point x="277" y="722"/>
      <point x="277" y="612" type="curve"/>
      <point x="414" y="612"/>
      <point x="277" y="612"/>
      <point x="414" y="612" type="curve"/>
      <point x="414" y="722"/>
      <point x="414" y="612"/>
      <point x="414" y="722" type="curve"/>
      <point x="368" y="722"/>
      <point x="323" y="722"/>
      <point x="277" y="722" type="curve"/>
    </contour>
    <contour>
      <point x="30" y="50"/>
      <point x="95" y="138"/>
      <point x="30" y="50" type="curve"/>
      <point x="55" y="28"/>
      <point x="95" y="1"/>
      <point x="146" y="1" type="curve"/>
      <point x="285" y="1"/>
      <point x="348" y="102"/>
      <point x="348" y="251" type="curve"/>
      <point x="348" y="408"/>
      <point x="348" y="565"/>
      <point x="348" y="723" type="curve"/>
      <point x="205" y="723"/>
      <point x="348" y="723"/>
      <point x="205" y="723" type="curve"/>
      <point x="205" y="565"/>
      <point x="205" y="408"/>
      <point x="205" y="251" type="curve"/>
      <point x="205" y="177"/>
      <point x="210" y="111"/>
      <point x="146" y="111" type="curve"/>
      <point x="124" y="111"/>
      <point x="112" y="126"/>
      <point x="95" y="138" type="curve"/>
    </contour>
  </outline>
</glyph>
<glyph name="K" format="1">
  <advance width="659"/>
  <unicode hex="004B"/>
  <outline>
    <contour>
      <point x="494" y="110"/>
      <point x="488" y="0"/>
      <point x="494" y="110" type="curve"/>
      <point x="354" y="110"/>
      <point x="494" y="110"/>
      <point x="354" y="110" type="curve"/>
      <point x="354" y="0"/>
      <point x="354" y="110"/>
      <point x="354" y="0" type="curve"/>
      <point x="399" y="0"/>
      <point x="443" y="0"/>
      <point x="488" y="0" type="curve"/>
    </contour>
    <contour>
      <point x="474" y="722"/>
      <point x="474" y="612"/>
      <point x="474" y="722" type="curve"/>
      <point x="428" y="722"/>
      <point x="382" y="722"/>
      <point x="337" y="722" type="curve"/>
      <point x="337" y="612"/>
      <point x="337" y="722"/>
      <point x="337" y="612" type="curve"/>
      <point x="474" y="612"/>
      <point x="337" y="612"/>
      <point x="474" y="612" type="curve"/>
    </contour>
    <contour>
      <point x="491" y="0"/>
      <point x="491" y="110"/>
      <point x="491" y="0" type="curve"/>
      <point x="537" y="0"/>
      <point x="583" y="0"/>
      <point x="629" y="0" type="curve"/>
      <point x="629" y="110"/>
      <point x="629" y="0"/>
      <point x="629" y="110" type="curve"/>
      <point x="491" y="110"/>
      <point x="629" y="110"/>
      <point x="491" y="110" type="curve"/>
    </contour>
    <contour>
      <point x="474" y="612"/>
      <point x="474" y="722"/>
      <point x="474" y="612" type="curve"/>
      <point x="611" y="612"/>
      <point x="474" y="612"/>
      <point x="611" y="612" type="curve"/>
      <point x="611" y="722"/>
      <point x="611" y="612"/>
      <point x="611" y="722" type="curve"/>
      <point x="566" y="722"/>
      <point x="520" y="722"/>
      <point x="474" y="722" type="curve"/>
    </contour>
    <contour>
      <point x="167" y="722"/>
      <point x="167" y="612"/>
      <point x="167" y="722" type="curve"/>
      <point x="122" y="722"/>
      <point x="76" y="722"/>
      <point x="30" y="722" type="curve"/>
      <point x="30" y="612"/>
      <point x="30" y="722"/>
      <point x="30" y="612" type="curve"/>
      <point x="167" y="612"/>
      <point x="30" y="612"/>
      <point x="167" y="612" type="curve"/>
    </contour>
    <contour>
      <point x="167" y="612"/>
      <point x="167" y="722"/>
      <point x="167" y="612" type="curve"/>
      <point x="305" y="612"/>
      <point x="167" y="612"/>
      <point x="305" y="612" type="curve"/>
      <point x="305" y="722"/>
      <point x="305" y="612"/>
      <point x="305" y="722" type="curve"/>
      <point x="259" y="722"/>
      <point x="213" y="722"/>
      <point x="167" y="722" type="curve"/>
    </contour>
    <contour>
      <point x="167" y="0"/>
      <point x="167" y="110"/>
      <point x="167" y="0" type="curve"/>
      <point x="213" y="0"/>
      <point x="167" y="0"/>
      <point x="305" y="0" type="curve"/>
      <point x="305" y="110"/>
      <point x="305" y="0"/>
      <point x="305" y="110" type="curve"/>
      <point x="167" y="110"/>
      <point x="305" y="110"/>
      <point x="167" y="110" type="curve"/>
    </contour>
    <contour>
      <point x="167" y="110"/>
      <point x="167" y="0"/>
      <point x="167" y="110" type="curve"/>
      <point x="30" y="110"/>
      <point x="167" y="110"/>
      <point x="30" y="110" type="curve"/>
      <point x="30" y="0"/>
      <point x="30" y="110"/>
      <point x="30" y="0" type="curve"/>
      <point x="76" y="0"/>
      <point x="122" y="0"/>
      <point x="167" y="0" type="curve"/>
    </contour>
    <contour>
      <point x="409" y="722"/>
      <point x="566" y="722"/>
      <point x="409" y="722" type="curve"/>
      <point x="308" y="608"/>
      <point x="207" y="494"/>
      <point x="106" y="380" type="curve"/>
      <point x="258" y="380"/>
      <point x="106" y="380"/>
      <point x="258" y="380" type="curve"/>
      <point x="360" y="494"/>
      <point x="463" y="608"/>
      <point x="566" y="722" type="curve"/>
    </contour>
    <contour>
      <point x="239" y="0"/>
      <point x="96" y="0"/>
      <point x="239" y="0" type="curve"/>
      <point x="239" y="0"/>
      <point x="239" y="722"/>
      <point x="239" y="722" type="curve"/>
      <point x="96" y="722"/>
      <point x="239" y="722"/>
      <point x="96" y="722" type="curve"/>
      <point x="96" y="481"/>
      <point x="96" y="241"/>
      <point x="96" y="0" type="curve"/>
    </contour>
    <contour>
      <point x="584" y="0"/>
      <point x="426" y="0"/>
      <point x="584" y="0" type="curve"/>
      <point x="476" y="127"/>
      <point x="366" y="253"/>
      <point x="258" y="380" type="curve"/>
      <point x="106" y="380"/>
      <point x="258" y="380"/>
      <point x="106" y="380" type="curve"/>
      <point x="213" y="253"/>
      <point x="319" y="127"/>
      <point x="426" y="0" type="curve"/>
    </contour>
  </outline>
</glyph>
<glyph name="L" format="1">
  <advance width="514"/>
  <unicode hex="004C"/>
  <outline>
    <contour>
      <point x="484" y="55"/>
      <point x="372" y="55"/>
      <point x="484" y="55" type="curve"/>
      <point x="484" y="175"/>
      <point x="484" y="55"/>
      <point x="484" y="175" type="curve"/>
      <point x="372" y="175"/>
      <point x="484" y="175"/>
      <point x="372" y="175" type="curve"/>
      <point x="372" y="55"/>
      <point x="372" y="175"/>
      <point x="372" y="55" type="curve"/>
    </contour>
    <contour>
      <point x="167" y="110"/>
      <point x="167" y="0"/>
      <point x="167" y="110" type="curve"/>
      <point x="30" y="110"/>
      <point x="167" y="110"/>
      <point x="30" y="110" type="curve"/>
      <point x="30" y="0"/>
      <point x="30" y="110"/>
      <point x="30" y="0" type="curve"/>
      <point x="76" y="0"/>
      <point x="122" y="0"/>
      <point x="167" y="0" type="curve"/>
    </contour>
    <contour>
      <point x="167" y="722"/>
      <point x="167" y="612"/>
      <point x="167" y="722" type="curve"/>
      <point x="122" y="722"/>
      <point x="76" y="722"/>
      <point x="30" y="722" type="curve"/>
      <point x="30" y="612"/>
      <point x="30" y="722"/>
      <point x="30" y="612" type="curve"/>
      <point x="167" y="612"/>
      <point x="30" y="612"/>
      <point x="167" y="612" type="curve"/>
    </contour>
    <contour>
      <point x="167" y="612"/>
      <point x="167" y="722"/>
      <point x="167" y="612" type="curve"/>
      <point x="305" y="612"/>
      <point x="167" y="612"/>
      <point x="305" y="612" type="curve"/>
      <point x="305" y="722"/>
      <point x="305" y="612"/>
      <point x="305" y="722" type="curve"/>
      <point x="259" y="722"/>
      <point x="213" y="722"/>
      <point x="167" y="722" type="curve"/>
    </contour>
    <contour>
      <point x="240" y="0"/>
      <point x="97" y="0"/>
      <point x="240" y="0" type="curve"/>
      <point x="240" y="241"/>
      <point x="239" y="481"/>
      <point x="240" y="722" type="curve"/>
      <point x="97" y="722"/>
      <point x="240" y="722"/>
      <point x="97" y="722" type="curve"/>
      <point x="96" y="481"/>
      <point x="97" y="241"/>
      <point x="97" y="0" type="curve"/>
    </contour>
    <contour>
      <point x="167" y="0"/>
      <point x="167" y="110"/>
      <point x="167" y="0" type="curve"/>
      <point x="273" y="0"/>
      <point x="378" y="0"/>
      <point x="484" y="0" type="curve"/>
      <point x="484" y="110"/>
      <point x="484" y="0"/>
      <point x="484" y="110" type="curve"/>
      <point x="378" y="110"/>
      <point x="273" y="110"/>
      <point x="167" y="110" type="curve"/>
    </contour>
  </outline>
</glyph>
<glyph name="N" format="1">
  <advance width="741"/>
  <unicode hex="004E"/>
  <outline>
    <contour>
      <point x="168" y="722"/>
      <point x="168" y="612"/>
      <point x="168" y="722" type="curve"/>
      <point x="122" y="722"/>
      <point x="76" y="722"/>
      <point x="31" y="722" type="curve"/>
      <point x="31" y="612"/>
      <point x="31" y="722"/>
      <point x="31" y="612" type="curve"/>
      <point x="168" y="612"/>
      <point x="31" y="612"/>
      <point x="168" y="612" type="curve"/>
    </contour>
    <contour>
      <point x="573" y="612"/>
      <point x="573" y="722"/>
      <point x="573" y="612" type="curve"/>
      <point x="710" y="612"/>
      <point x="573" y="612"/>
      <point x="710" y="612" type="curve"/>
      <point x="710" y="722"/>
      <point x="710" y="612"/>
      <point x="710" y="722" type="curve"/>
      <point x="665" y="722"/>
      <point x="619" y="722"/>
      <point x="573" y="722" type="curve"/>
    </contour>
    <contour>
      <point x="573" y="722"/>
      <point x="573" y="612"/>
      <point x="573" y="722" type="curve"/>
      <point x="527" y="722"/>
      <point x="481" y="722"/>
      <point x="436" y="722" type="curve"/>
      <point x="436" y="612"/>
      <point x="436" y="722"/>
      <point x="436" y="612" type="curve"/>
      <point x="573" y="612"/>
      <point x="436" y="612"/>
      <point x="573" y="612" type="curve"/>
    </contour>
    <contour>
      <point x="167" y="110"/>
      <point x="167" y="0"/>
      <point x="167" y="110" type="curve"/>
      <point x="30" y="110"/>
      <point x="167" y="110"/>
      <point x="30" y="110" type="curve"/>
      <point x="30" y="0"/>
      <point x="30" y="110"/>
      <point x="30" y="0" type="curve"/>
      <point x="76" y="0"/>
      <point x="122" y="0"/>
      <point x="167" y="0" type="curve"/>
    </contour>
    <contour>
      <point x="167" y="0"/>
      <point x="167" y="110"/>
      <point x="167" y="0" type="curve"/>
      <point x="213" y="0"/>
      <point x="167" y="0"/>
      <point x="305" y="0" type="curve"/>
      <point x="305" y="110"/>
      <point x="305" y="0"/>
      <point x="305" y="110" type="curve"/>
      <point x="167" y="110"/>
      <point x="305" y="110"/>
      <point x="167" y="110" type="curve"/>
    </contour>
    <contour>
      <point x="644" y="0"/>
      <point x="496" y="0"/>
      <point x="644" y="0" type="curve"/>
      <point x="511" y="241"/>
      <point x="377" y="481"/>
      <point x="243" y="722" type="curve"/>
      <point x="95" y="722"/>
      <point x="243" y="722"/>
      <point x="95" y="722" type="curve"/>
      <point x="229" y="481"/>
      <point x="363" y="241"/>
      <point x="496" y="0" type="curve"/>
    </contour>
    <contour>
      <point x="501" y="722"/>
      <point x="644" y="722"/>
      <point x="501" y="722" type="curve"/>
      <point x="501" y="481"/>
      <point x="501" y="241"/>
      <point x="501" y="0" type="curve"/>
      <point x="644" y="0"/>
      <point x="501" y="0"/>
      <point x="644" y="0" type="curve"/>
      <point x="644" y="241"/>
      <point x="644" y="481"/>
      <point x="644" y="722" type="curve"/>
    </contour>
    <contour>
      <point x="239" y="0"/>
      <point x="96" y="0"/>
      <point x="239" y="0" type="curve"/>
      <point x="239" y="241"/>
      <point x="239" y="481"/>
      <point x="239" y="722" type="curve"/>
      <point x="96" y="722"/>
      <point x="239" y="722"/>
      <point x="96" y="722" type="curve"/>
      <point x="96" y="481"/>
      <point x="96" y="241"/>
      <point x="96" y="0" type="curve"/>
    </contour>
  </outline>
</glyph>
<glyph name="T" format="1">
  <advance width="526"/>
  <unicode hex="0054"/>
  <outline>
    <contour>
      <point x="30" y="666"/>
      <point x="142" y="666"/>
      <point x="30" y="666" type="curve"/>
      <point x="30" y="546"/>
      <point x="30" y="666"/>
      <point x="30" y="546" type="curve"/>
      <point x="142" y="546"/>
      <point x="30" y="546"/>
      <point x="142" y="546" type="curve"/>
      <point x="142" y="666"/>
      <point x="142" y="546"/>
      <point x="142" y="666" type="curve"/>
    </contour>
    <contour>
      <point x="383" y="666"/>
      <point x="495" y="666"/>
      <point x="383" y="666" type="curve"/>
      <point x="383" y="546"/>
      <point x="383" y="666"/>
      <point x="383" y="546" type="curve"/>
      <point x="495" y="546"/>
      <point x="383" y="546"/>
      <point x="495" y="546" type="curve"/>
      <point x="495" y="666"/>
      <point x="495" y="546"/>
      <point x="495" y="666" type="curve"/>
    </contour>
    <contour>
      <point x="262" y="0"/>
      <point x="262" y="110"/>
      <point x="262" y="0" type="curve"/>
      <point x="307" y="0"/>
      <point x="353" y="0"/>
      <point x="399" y="0" type="curve"/>
      <point x="399" y="110"/>
      <point x="399" y="0"/>
      <point x="399" y="110" type="curve"/>
      <point x="262" y="110"/>
      <point x="399" y="110"/>
      <point x="262" y="110" type="curve"/>
    </contour>
    <contour>
      <point x="262" y="110"/>
      <point x="262" y="0"/>
      <point x="262" y="110" type="curve"/>
      <point x="125" y="110"/>
      <point x="262" y="110"/>
      <point x="125" y="110" type="curve"/>
      <point x="124" y="0"/>
      <point x="125" y="110"/>
      <point x="124" y="0" type="curve"/>
      <point x="170" y="0"/>
      <point x="216" y="0"/>
      <point x="262" y="0" type="curve"/>
    </contour>
    <contour>
      <point x="334" y="0"/>
      <point x="191" y="0"/>
      <point x="334" y="0" type="curve"/>
      <point x="334" y="237"/>
      <point x="334" y="473"/>
      <point x="334" y="710" type="curve"/>
      <point x="191" y="710"/>
      <point x="334" y="710"/>
      <point x="191" y="710" type="curve"/>
      <point x="191" y="473"/>
      <point x="191" y="237"/>
      <point x="191" y="0" type="curve"/>
    </contour>
    <contour>
      <point x="30" y="605"/>
      <point x="30" y="727"/>
      <point x="30" y="605" type="curve"/>
      <point x="185" y="605"/>
      <point x="340" y="605"/>
      <point x="495" y="605" type="curve"/>
      <point x="495" y="727"/>
      <point x="495" y="605"/>
      <point x="495" y="727" type="curve"/>
      <point x="340" y="727"/>
      <point x="185" y="727"/>
      <point x="30" y="727" type="curve"/>
    </contour>
  </outline>
</glyph>
<glyph name="V" format="1">
  <advance width="741"/>
  <unicode hex="0056"/>
  <outline>
    <contour>
      <point x="574" y="722"/>
      <point x="574" y="612"/>
      <point x="574" y="722" type="curve"/>
      <point x="517" y="722"/>
      <point x="461" y="722"/>
      <point x="404" y="722" type="curve"/>
      <point x="404" y="612"/>
      <point x="404" y="722"/>
      <point x="404" y="612" type="curve"/>
      <point x="574" y="612"/>
      <point x="404" y="612"/>
      <point x="574" y="612" type="curve"/>
    </contour>
    <contour>
      <point x="167" y="722"/>
      <point x="167" y="612"/>
      <point x="167" y="722" type="curve"/>
      <point x="122" y="722"/>
      <point x="76" y="722"/>
      <point x="30" y="722" type="curve"/>
      <point x="30" y="612"/>
      <point x="30" y="722"/>
      <point x="30" y="612" type="curve"/>
      <point x="167" y="612"/>
      <point x="30" y="612"/>
      <point x="167" y="612" type="curve"/>
    </contour>
    <contour>
      <point x="574" y="612"/>
      <point x="574" y="722"/>
      <point x="574" y="612" type="curve"/>
      <point x="711" y="612"/>
      <point x="574" y="612"/>
      <point x="711" y="612" type="curve"/>
      <point x="711" y="722"/>
      <point x="711" y="612"/>
      <point x="711" y="722" type="curve"/>
      <point x="665" y="722"/>
      <point x="620" y="722"/>
      <point x="574" y="722" type="curve"/>
    </contour>
    <contour>
      <point x="167" y="612"/>
      <point x="167" y="722"/>
      <point x="167" y="612" type="curve"/>
      <point x="337" y="612"/>
      <point x="167" y="612"/>
      <point x="337" y="612" type="curve"/>
      <point x="337" y="722"/>
      <point x="337" y="612"/>
      <point x="337" y="722" type="curve"/>
      <point x="280" y="722"/>
      <point x="224" y="722"/>
      <point x="167" y="722" type="curve"/>
    </contour>
    <contour>
      <point x="510" y="722"/>
      <point x="655" y="722"/>
      <point x="510" y="722" type="curve"/>
      <point x="441" y="481"/>
      <point x="371" y="241"/>
      <point x="302" y="0" type="curve"/>
      <point x="448" y="0"/>
      <point x="302" y="0"/>
      <point x="448" y="0" type="curve"/>
      <point x="517" y="241"/>
      <point x="586" y="481"/>
      <point x="655" y="722" type="curve"/>
    </contour>
    <contour>
      <point x="86" y="722"/>
      <point x="231" y="722"/>
      <point x="86" y="722" type="curve"/>
      <point x="156" y="481"/>
      <point x="227" y="241"/>
      <point x="297" y="0" type="curve"/>
      <point x="442" y="0"/>
      <point x="297" y="0"/>
      <point x="442" y="0" type="curve"/>
      <point x="372" y="241"/>
      <point x="301" y="481"/>
      <point x="231" y="722" type="curve"/>
    </contour>
  </outline>
</glyph>
<glyph name="X" format="1">
  <advance width="709"/>
  <unicode hex="0058"/>
  <outline>
    <contour>
      <point x="167" y="0"/>
      <point x="167" y="110"/>
      <point x="167" y="0" type="curve"/>
      <point x="213" y="0"/>
      <point x="167" y="0"/>
      <point x="305" y="0" type="curve"/>
      <point x="305" y="110"/>
      <point x="305" y="0"/>
      <point x="305" y="110" type="curve"/>
      <point x="167" y="110"/>
      <point x="305" y="110"/>
      <point x="167" y="110" type="curve"/>
    </contour>
    <contour>
      <point x="167" y="110"/>
      <point x="167" y="0"/>
      <point x="167" y="110" type="curve"/>
      <point x="30" y="110"/>
      <point x="167" y="110"/>
      <point x="30" y="110" type="curve"/>
      <point x="30" y="0"/>
      <point x="30" y="110"/>
      <point x="30" y="0" type="curve"/>
      <point x="76" y="0"/>
      <point x="122" y="0"/>
      <point x="167" y="0" type="curve"/>
    </contour>
    <contour>
      <point x="542" y="0"/>
      <point x="542" y="110"/>
      <point x="542" y="0" type="curve"/>
      <point x="587" y="0"/>
      <point x="633" y="0"/>
      <point x="679" y="0" type="curve"/>
      <point x="679" y="110"/>
      <point x="679" y="0"/>
      <point x="679" y="110" type="curve"/>
      <point x="542" y="110"/>
      <point x="679" y="110"/>
      <point x="542" y="110" type="curve"/>
    </contour>
    <contour>
      <point x="542" y="110"/>
      <point x="542" y="0"/>
      <point x="542" y="110" type="curve"/>
      <point x="404" y="110"/>
      <point x="542" y="110"/>
      <point x="404" y="110" type="curve"/>
      <point x="404" y="0"/>
      <point x="404" y="110"/>
      <point x="404" y="0" type="curve"/>
      <point x="450" y="0"/>
      <point x="496" y="0"/>
      <point x="542" y="0" type="curve"/>
    </contour>
    <contour>
      <point x="522" y="612"/>
      <point x="522" y="722"/>
      <point x="522" y="612" type="curve"/>
      <point x="659" y="612"/>
      <point x="522" y="612"/>
      <point x="659" y="612" type="curve"/>
      <point x="659" y="722"/>
      <point x="659" y="612"/>
      <point x="659" y="722" type="curve"/>
      <point x="614" y="722"/>
      <point x="568" y="722"/>
      <point x="522" y="722" type="curve"/>
    </contour>
    <contour>
      <point x="522" y="722"/>
      <point x="522" y="612"/>
      <point x="522" y="722" type="curve"/>
      <point x="476" y="722"/>
      <point x="430" y="722"/>
      <point x="385" y="722" type="curve"/>
      <point x="385" y="612"/>
      <point x="385" y="722"/>
      <point x="385" y="612" type="curve"/>
      <point x="522" y="612"/>
      <point x="385" y="612"/>
      <point x="522" y="612" type="curve"/>
    </contour>
    <contour>
      <point x="190" y="722"/>
      <point x="190" y="612"/>
      <point x="190" y="722" type="curve"/>
      <point x="144" y="722"/>
      <point x="98" y="722"/>
      <point x="53" y="722" type="curve"/>
      <point x="52" y="612"/>
      <point x="53" y="722"/>
      <point x="52" y="612" type="curve"/>
      <point x="190" y="612"/>
      <point x="52" y="612"/>
      <point x="190" y="612" type="curve"/>
    </contour>
    <contour>
      <point x="190" y="612"/>
      <point x="190" y="722"/>
      <point x="190" y="612" type="curve"/>
      <point x="327" y="612"/>
      <point x="190" y="612"/>
      <point x="327" y="612" type="curve"/>
      <point x="327" y="722"/>
      <point x="327" y="612"/>
      <point x="327" y="722" type="curve"/>
      <point x="281" y="722"/>
      <point x="235" y="722"/>
      <point x="190" y="722" type="curve"/>
    </contour>
    <contour>
      <point x="458" y="722"/>
      <point x="605" y="722"/>
      <point x="458" y="722" type="curve"/>
      <point x="333" y="481"/>
      <point x="208" y="241"/>
      <point x="84" y="0" type="curve"/>
      <point x="234" y="0"/>
      <point x="84" y="0"/>
      <point x="234" y="0" type="curve"/>
      <point x="358" y="241"/>
      <point x="481" y="481"/>
      <point x="605" y="722" type="curve"/>
    </contour>
    <contour>
      <point x="109" y="722"/>
      <point x="256" y="722"/>
      <point x="109" y="722" type="curve"/>
      <point x="232" y="481"/>
      <point x="355" y="241"/>
      <point x="478" y="0" type="curve"/>
      <point x="627" y="0"/>
      <point x="478" y="0"/>
      <point x="627" y="0" type="curve"/>
      <point x="503" y="241"/>
      <point x="379" y="481"/>
      <point x="256" y="722" type="curve"/>
    </contour>
  </outline>
</glyph>
<glyph name="Y" format="1">
  <advance width="679"/>
  <unicode hex="0059"/>
  <outline>
    <contour>
      <point x="335" y="110"/>
      <point x="335" y="0"/>
      <point x="335" y="110" type="curve"/>
      <point x="197" y="110"/>
      <point x="335" y="110"/>
      <point x="197" y="110" type="curve"/>
      <point x="197" y="0"/>
      <point x="197" y="110"/>
      <point x="197" y="0" type="curve"/>
      <point x="243" y="0"/>
      <point x="289" y="0"/>
      <point x="335" y="0" type="curve"/>
    </contour>
    <contour>
      <point x="335" y="0"/>
      <point x="335" y="110"/>
      <point x="335" y="0" type="curve"/>
      <point x="380" y="0"/>
      <point x="426" y="0"/>
      <point x="472" y="0" type="curve"/>
      <point x="472" y="110"/>
      <point x="472" y="0"/>
      <point x="472" y="110" type="curve"/>
      <point x="335" y="110"/>
      <point x="472" y="110"/>
      <point x="335" y="110" type="curve"/>
    </contour>
    <contour>
      <point x="512" y="722"/>
      <point x="512" y="612"/>
      <point x="512" y="722" type="curve"/>
      <point x="466" y="722"/>
      <point x="420" y="722"/>
      <point x="374" y="722" type="curve"/>
      <point x="374" y="612"/>
      <point x="374" y="722"/>
      <point x="374" y="612" type="curve"/>
      <point x="512" y="612"/>
      <point x="374" y="612"/>
      <point x="512" y="612" type="curve"/>
    </contour>
    <contour>
      <point x="167" y="722"/>
      <point x="167" y="612"/>
      <point x="167" y="722" type="curve"/>
      <point x="122" y="722"/>
      <point x="76" y="722"/>
      <point x="30" y="722" type="curve"/>
      <point x="30" y="612"/>
      <point x="30" y="722"/>
      <point x="30" y="612" type="curve"/>
      <point x="167" y="612"/>
      <point x="30" y="612"/>
      <point x="167" y="612" type="curve"/>
    </contour>
    <contour>
      <point x="167" y="612"/>
      <point x="167" y="722"/>
      <point x="167" y="612" type="curve"/>
      <point x="305" y="612"/>
      <point x="167" y="612"/>
      <point x="305" y="612" type="curve"/>
      <point x="305" y="722"/>
      <point x="305" y="612"/>
      <point x="305" y="722" type="curve"/>
      <point x="259" y="722"/>
      <point x="213" y="722"/>
      <point x="167" y="722" type="curve"/>
    </contour>
    <contour>
      <point x="512" y="612"/>
      <point x="512" y="722"/>
      <point x="512" y="612" type="curve"/>
      <point x="649" y="612"/>
      <point x="512" y="612"/>
      <point x="649" y="612" type="curve"/>
      <point x="649" y="722"/>
      <point x="649" y="612"/>
      <point x="649" y="722" type="curve"/>
      <point x="603" y="722"/>
      <point x="557" y="722"/>
      <point x="512" y="722" type="curve"/>
    </contour>
    <contour>
      <point x="86" y="722"/>
      <point x="231" y="722"/>
      <point x="86" y="722" type="curve"/>
      <point x="144" y="594"/>
      <point x="203" y="465"/>
      <point x="262" y="337" type="curve"/>
      <point x="407" y="337"/>
      <point x="262" y="337"/>
      <point x="407" y="337" type="curve"/>
      <point x="348" y="465"/>
      <point x="289" y="594"/>
      <point x="231" y="722" type="curve"/>
    </contour>
    <contour>
      <point x="448" y="722"/>
      <point x="593" y="722"/>
      <point x="448" y="722" type="curve"/>
      <point x="386" y="594"/>
      <point x="324" y="465"/>
      <point x="262" y="337" type="curve"/>
      <point x="407" y="337"/>
      <point x="262" y="337"/>
      <point x="407" y="337" type="curve"/>
      <point x="469" y="465"/>
      <point x="531" y="594"/>
      <point x="593" y="722" type="curve"/>
    </contour>
    <contour>
      <point x="413" y="0"/>
      <point x="257" y="0"/>
      <point x="413" y="0" type="curve"/>
      <point x="413" y="115"/>
      <point x="413" y="231"/>
      <point x="413" y="346" type="curve"/>
      <point x="257" y="346"/>
      <point x="413" y="346"/>
      <point x="257" y="346" type="curve"/>
      <point x="257" y="231"/>
      <point x="257" y="115"/>
      <point x="257" y="0" type="curve"/>
    </contour>
  </outline>
</glyph>
<glyph name="Z" format="1">
  <advance width="560"/>
  <unicode hex="005A"/>
  <outline>
    <contour>
      <point x="79" y="667"/>
      <point x="191" y="667"/>
      <point x="79" y="667" type="curve"/>
      <point x="79" y="547"/>
      <point x="79" y="667"/>
      <point x="79" y="547" type="curve"/>
      <point x="191" y="547"/>
      <point x="79" y="547"/>
      <point x="191" y="547" type="curve"/>
      <point x="191" y="667"/>
      <point x="191" y="547"/>
      <point x="191" y="667" type="curve"/>
    </contour>
    <contour>
      <point x="537" y="55"/>
      <point x="425" y="55"/>
      <point x="537" y="55" type="curve"/>
      <point x="537" y="175"/>
      <point x="537" y="55"/>
      <point x="537" y="175" type="curve"/>
      <point x="425" y="175"/>
      <point x="537" y="175"/>
      <point x="425" y="175" type="curve"/>
      <point x="425" y="55"/>
      <point x="425" y="175"/>
      <point x="425" y="55" type="curve"/>
    </contour>
    <contour>
      <point x="79" y="612"/>
      <point x="79" y="722"/>
      <point x="79" y="612" type="curve"/>
      <point x="200" y="612"/>
      <point x="351" y="612"/>
      <point x="473" y="612" type="curve"/>
      <point x="461" y="622"/>
      <point x="442" y="620"/>
      <point x="431" y="631" type="curve"/>
      <point x="420" y="640"/>
      <point x="423" y="658"/>
      <point x="413" y="668" type="curve"/>
      <point x="406" y="658"/>
      <point x="390" y="668"/>
      <point x="384" y="658" type="curve"/>
      <point x="267" y="475"/>
      <point x="384" y="658"/>
      <point x="30" y="110" type="curve"/>
      <point x="30" y="54"/>
      <point x="30" y="110"/>
      <point x="30" y="54" type="curve"/>
      <point x="30" y="0"/>
      <point x="30" y="54"/>
      <point x="30" y="0" type="curve"/>
      <point x="83" y="0"/>
      <point x="30" y="0"/>
      <point x="83" y="0" type="curve"/>
      <point x="517" y="0"/>
      <point x="392" y="0"/>
      <point x="537" y="0" type="curve"/>
      <point x="537" y="110"/>
      <point x="537" y="0"/>
      <point x="537" y="110" type="curve"/>
      <point x="392" y="110"/>
      <point x="227" y="110"/>
      <point x="83" y="110" type="curve"/>
      <point x="93" y="102"/>
      <point x="109" y="103"/>
      <point x="119" y="95" type="curve"/>
      <point x="130" y="84"/>
      <point x="129" y="65"/>
      <point x="140" y="54" type="curve"/>
      <point x="147" y="64"/>
      <point x="163" y="55"/>
      <point x="170" y="64" type="curve"/>
      <point x="288" y="248"/>
      <point x="170" y="64"/>
      <point x="530" y="612" type="curve"/>
      <point x="530" y="668"/>
      <point x="530" y="612"/>
      <point x="530" y="668" type="curve"/>
      <point x="530" y="722"/>
      <point x="530" y="668"/>
      <point x="530" y="722" type="curve"/>
      <point x="473" y="722"/>
      <point x="530" y="722"/>
      <point x="473" y="722" type="curve"/>
      <point x="351" y="722"/>
      <point x="200" y="722"/>
      <point x="79" y="722" type="curve"/>
    </contour>
  </outline>
</glyph>
<glyph name="b" format="1">
  <advance width="583"/>
  <unicode hex="0062"/>
  <outline>
    <contour>
      <point x="167" y="799"/>
      <point x="167" y="689"/>
      <point x="167" y="799" type="curve"/>
      <point x="121" y="799"/>
      <point x="76" y="800"/>
      <point x="30" y="800" type="curve"/>
      <point x="30" y="690"/>
      <point x="30" y="800"/>
      <point x="30" y="690" type="curve"/>
      <point x="167" y="689"/>
      <point x="30" y="690"/>
      <point x="167" y="689" type="curve"/>
    </contour>
    <contour>
      <point x="205" y="349"/>
      <point x="169" y="431"/>
      <point x="205" y="349" type="curve"/>
      <point x="227" y="379"/>
      <point x="267" y="423"/>
      <point x="323" y="423" type="curve"/>
      <point x="396" y="423"/>
      <point x="409" y="346"/>
      <point x="409" y="261" type="curve"/>
      <point x="411" y="180"/>
      <point x="394" y="110"/>
      <point x="325" y="110" type="curve"/>
      <point x="278" y="110"/>
      <point x="245" y="130"/>
      <point x="215" y="165" type="curve"/>
      <point x="160" y="99"/>
      <point x="215" y="165"/>
      <point x="160" y="99" type="curve"/>
      <point x="214" y="31"/>
      <point x="279" y="0"/>
      <point x="367" y="0" type="curve"/>
      <point x="498" y="0"/>
      <point x="552" y="121"/>
      <point x="552" y="267" type="curve"/>
      <point x="552" y="412"/>
      <point x="500" y="533"/>
      <point x="371" y="533" type="curve"/>
      <point x="281" y="533"/>
      <point x="206" y="482"/>
      <point x="169" y="431" type="curve"/>
    </contour>
    <contour>
      <point x="237" y="0"/>
      <point x="94" y="0"/>
      <point x="237" y="0" type="curve"/>
      <point x="237" y="267"/>
      <point x="237" y="533"/>
      <point x="237" y="800" type="curve"/>
      <point x="94" y="800"/>
      <point x="237" y="800"/>
      <point x="94" y="800" type="curve"/>
      <point x="94" y="533"/>
      <point x="94" y="267"/>
      <point x="94" y="0" type="curve"/>
    </contour>
    <contour>
      <point x="167" y="110"/>
      <point x="167" y="-1"/>
      <point x="167" y="110" type="curve"/>
      <point x="30" y="110"/>
      <point x="167" y="110"/>
      <point x="30" y="110" type="curve"/>
      <point x="30" y="0"/>
      <point x="30" y="110"/>
      <point x="30" y="0" type="curve"/>
      <point x="76" y="0"/>
      <point x="121" y="-1"/>
      <point x="167" y="-1" type="curve"/>
    </contour>
  </outline>
</glyph>
<glyph name="e" format="1">
  <advance width="487"/>
  <unicode hex="0065"/>
  <outline>
    <contour>
      <point x="102" y="226"/>
      <point x="102" y="336"/>
      <point x="102" y="226" type="curve"/>
      <point x="200" y="226"/>
      <point x="298" y="226"/>
      <point x="396" y="226" type="curve"/>
      <point x="457" y="226"/>
      <point x="396" y="226"/>
      <point x="457" y="226" type="curve"/>
      <point x="457" y="274"/>
      <point x="457" y="226"/>
      <point x="457" y="274" type="curve"/>
      <point x="457" y="280"/>
      <point x="457" y="286"/>
      <point x="457" y="292" type="curve"/>
      <point x="457" y="439"/>
      <point x="390" y="533"/>
      <point x="252" y="533" type="curve"/>
      <point x="104" y="533"/>
      <point x="30" y="435"/>
      <point x="30" y="278" type="curve"/>
      <point x="30" y="109"/>
      <point x="109" y="0"/>
      <point x="268" y="0" type="curve"/>
      <point x="338" y="0"/>
      <point x="384" y="24"/>
      <point x="431" y="77" type="curve"/>
      <point x="349" y="151"/>
      <point x="431" y="77"/>
      <point x="349" y="151" type="curve"/>
      <point x="325" y="125"/>
      <point x="303" y="110"/>
      <point x="268" y="110" type="curve"/>
      <point x="187" y="110"/>
      <point x="173" y="184"/>
      <point x="173" y="278" type="curve"/>
      <point x="173" y="358"/>
      <point x="178" y="423"/>
      <point x="246" y="423" type="curve"/>
      <point x="305" y="423"/>
      <point x="321" y="372"/>
      <point x="321" y="303" type="curve"/>
      <point x="321" y="293"/>
      <point x="321" y="284"/>
      <point x="321" y="274" type="curve"/>
      <point x="333" y="286"/>
      <point x="345" y="296"/>
      <point x="357" y="308" type="curve"/>
      <point x="368" y="319"/>
      <point x="385" y="324"/>
      <point x="396" y="336" type="curve"/>
      <point x="298" y="336"/>
      <point x="200" y="336"/>
      <point x="102" y="336" type="curve"/>
    </contour>
  </outline>
</glyph>
<glyph name="k" format="1">
  <advance width="622"/>
  <unicode hex="006B"/>
  <outline>
    <contour>
      <point x="167" y="110"/>
      <point x="167" y="-1"/>
      <point x="167" y="110" type="curve"/>
      <point x="30" y="110"/>
      <point x="167" y="110"/>
      <point x="30" y="110" type="curve"/>
      <point x="30" y="0"/>
      <point x="30" y="110"/>
      <point x="30" y="0" type="curve"/>
      <point x="76" y="0"/>
      <point x="122" y="-1"/>
      <point x="167" y="-1" type="curve"/>
    </contour>
    <contour>
      <point x="425" y="-1"/>
      <point x="425" y="110"/>
      <point x="425" y="-1" type="curve"/>
      <point x="470" y="-1"/>
      <point x="516" y="0"/>
      <point x="562" y="0" type="curve"/>
      <point x="562" y="110"/>
      <point x="562" y="0"/>
      <point x="562" y="110" type="curve"/>
      <point x="425" y="110"/>
      <point x="562" y="110"/>
      <point x="425" y="110" type="curve"/>
    </contour>
    <contour>
      <point x="435" y="423"/>
      <point x="435" y="533"/>
      <point x="435" y="423" type="curve"/>
      <point x="563" y="423"/>
      <point x="435" y="423"/>
      <point x="563" y="423" type="curve"/>
      <point x="563" y="533"/>
      <point x="563" y="423"/>
      <point x="563" y="533" type="curve"/>
      <point x="520" y="533"/>
      <point x="478" y="533"/>
      <point x="435" y="533" type="curve"/>
    </contour>
    <contour>
      <point x="167" y="-1"/>
      <point x="167" y="110"/>
      <point x="167" y="-1" type="curve"/>
      <point x="210" y="-1"/>
      <point x="131" y="-1"/>
      <point x="260" y="0" type="curve"/>
      <point x="260" y="110"/>
      <point x="260" y="0"/>
      <point x="260" y="110" type="curve"/>
      <point x="131" y="110"/>
      <point x="296" y="110"/>
      <point x="167" y="110" type="curve"/>
    </contour>
    <contour>
      <point x="435" y="533"/>
      <point x="435" y="423"/>
      <point x="435" y="533" type="curve"/>
      <point x="392" y="533"/>
      <point x="349" y="533"/>
      <point x="305" y="533" type="curve"/>
      <point x="305" y="423"/>
      <point x="305" y="533"/>
      <point x="305" y="423" type="curve"/>
      <point x="435" y="423"/>
      <point x="305" y="423"/>
      <point x="435" y="423" type="curve"/>
    </contour>
    <contour>
      <point x="169" y="799"/>
      <point x="169" y="689"/>
      <point x="169" y="799" type="curve"/>
      <point x="123" y="799"/>
      <point x="77" y="800"/>
      <point x="32" y="800" type="curve"/>
      <point x="32" y="690"/>
      <point x="32" y="800"/>
      <point x="32" y="690" type="curve"/>
      <point x="169" y="689"/>
      <point x="32" y="690"/>
      <point x="169" y="689" type="curve"/>
    </contour>
    <contour>
      <point x="240" y="0"/>
      <point x="97" y="0"/>
      <point x="240" y="0" type="curve"/>
      <point x="240" y="0"/>
      <point x="240" y="800"/>
      <point x="240" y="800" type="curve"/>
      <point x="97" y="800"/>
      <point x="240" y="800"/>
      <point x="97" y="800" type="curve"/>
      <point x="97" y="533"/>
      <point x="97" y="267"/>
      <point x="97" y="0" type="curve"/>
    </contour>
    <contour>
      <point x="370" y="533"/>
      <point x="525" y="533"/>
      <point x="370" y="533" type="curve"/>
      <point x="283" y="447"/>
      <point x="195" y="361"/>
      <point x="107" y="275" type="curve"/>
      <point x="262" y="275"/>
      <point x="107" y="275"/>
      <point x="262" y="275" type="curve"/>
      <point x="350" y="361"/>
      <point x="438" y="447"/>
      <point x="525" y="533" type="curve"/>
    </contour>
    <contour>
      <point x="545" y="0"/>
      <point x="390" y="0"/>
      <point x="545" y="0" type="curve"/>
      <point x="451" y="92"/>
      <point x="356" y="183"/>
      <point x="262" y="275" type="curve"/>
      <point x="107" y="275"/>
      <point x="262" y="275"/>
      <point x="107" y="275" type="curve"/>
      <point x="201" y="183"/>
      <point x="296" y="92"/>
      <point x="390" y="0" type="curve"/>
    </contour>
  </outline>
</glyph>
<glyph name="l" format="1">
  <advance width="335"/>
  <unicode hex="006C"/>
  <outline>
    <contour>
      <point x="167" y="110"/>
      <point x="167" y="-1"/>
      <point x="167" y="110" type="curve"/>
      <point x="30" y="110"/>
      <point x="167" y="110"/>
      <point x="30" y="110" type="curve"/>
      <point x="30" y="0"/>
      <point x="30" y="110"/>
      <point x="30" y="0" type="curve"/>
      <point x="76" y="0"/>
      <point x="121" y="-1"/>
      <point x="167" y="-1" type="curve"/>
    </contour>
    <contour>
      <point x="169" y="799"/>
      <point x="169" y="689"/>
      <point x="169" y="799" type="curve"/>
      <point x="123" y="799"/>
      <point x="77" y="800"/>
      <point x="32" y="800" type="curve"/>
      <point x="31" y="690"/>
      <point x="32" y="800"/>
      <point x="31" y="690" type="curve"/>
      <point x="169" y="689"/>
      <point x="31" y="690"/>
      <point x="169" y="689" type="curve"/>
    </contour>
    <contour>
      <point x="167" y="-1"/>
      <point x="167" y="110"/>
      <point x="167" y="-1" type="curve"/>
      <point x="213" y="-1"/>
      <point x="259" y="0"/>
      <point x="305" y="0" type="curve"/>
      <point x="305" y="110"/>
      <point x="305" y="0"/>
      <point x="305" y="110" type="curve"/>
      <point x="167" y="110"/>
      <point x="305" y="110"/>
      <point x="167" y="110" type="curve"/>
    </contour>
    <contour>
      <point x="238" y="0"/>
      <point x="95" y="0"/>
      <point x="238" y="0" type="curve"/>
      <point x="238" y="267"/>
      <point x="238" y="533"/>
      <point x="238" y="800" type="curve"/>
      <point x="95" y="800"/>
      <point x="238" y="800"/>
      <point x="95" y="800" type="curve"/>
      <point x="95" y="533"/>
      <point x="95" y="267"/>
      <point x="95" y="0" type="curve"/>
    </contour>
  </outline>
</glyph>
<glyph name="r" format="1">
  <advance width="385"/>
  <unicode hex="0072"/>
  <outline>
    <contour>
      <point x="168" y="0"/>
      <point x="168" y="110"/>
      <point x="168" y="0" type="curve"/>
      <point x="211" y="0"/>
      <point x="255" y="0"/>
      <point x="298" y="0" type="curve"/>
      <point x="298" y="110"/>
      <point x="298" y="0"/>
      <point x="298" y="110" type="curve"/>
      <point x="168" y="110"/>
      <point x="298" y="110"/>
      <point x="168" y="110" type="curve"/>
    </contour>
    <contour>
      <point x="168" y="110"/>
      <point x="168" y="0"/>
      <point x="168" y="110" type="curve"/>
      <point x="31" y="110"/>
      <point x="168" y="110"/>
      <point x="31" y="110" type="curve"/>
      <point x="31" y="0"/>
      <point x="31" y="110"/>
      <point x="31" y="0" type="curve"/>
      <point x="77" y="0"/>
      <point x="122" y="0"/>
      <point x="168" y="0" type="curve"/>
    </contour>
    <contour>
      <point x="167" y="533"/>
      <point x="167" y="423"/>
      <point x="167" y="533" type="curve"/>
      <point x="122" y="533"/>
      <point x="76" y="533"/>
      <point x="30" y="533" type="curve"/>
      <point x="30" y="423"/>
      <point x="30" y="533"/>
      <point x="30" y="423" type="curve"/>
      <point x="167" y="423"/>
      <point x="30" y="423"/>
      <point x="167" y="423" type="curve"/>
    </contour>
    <contour>
      <point x="240" y="0"/>
      <point x="97" y="0"/>
      <point x="240" y="0" type="curve"/>
      <point x="240" y="178"/>
      <point x="240" y="355"/>
      <point x="240" y="533" type="curve"/>
      <point x="97" y="533"/>
      <point x="240" y="533"/>
      <point x="97" y="533" type="curve"/>
      <point x="97" y="355"/>
      <point x="97" y="178"/>
      <point x="97" y="0" type="curve"/>
    </contour>
    <contour>
      <point x="198" y="351"/>
      <point x="157" y="397"/>
      <point x="198" y="351" type="curve"/>
      <point x="228" y="410"/>
      <point x="287" y="423"/>
      <point x="355" y="423" type="curve"/>
      <point x="355" y="538"/>
      <point x="355" y="423"/>
      <point x="355" y="538" type="curve"/>
      <point x="260" y="538"/>
      <point x="196" y="484"/>
      <point x="157" y="397" type="curve"/>
    </contour>
  </outline>
</glyph>
<glyph name="tadeva" format="1">
  <advance width="583"/>
  <unicode hex="0924"/>
  <outline>
    <contour>
      <point x="292" y="99"/>
      <point x="201" y="10"/>
      <point x="292" y="99" type="curve"/>
      <point x="225" y="163"/>
      <point x="179" y="221"/>
      <point x="179" y="314" type="curve"/>
      <point x="179" y="359"/>
      <point x="205" y="390"/>
      <point x="249" y="390" type="curve"/>
      <point x="307" y="390"/>
      <point x="364" y="390"/>
      <point x="422" y="390" type="curve"/>
      <point x="422" y="501"/>
      <point x="422" y="390"/>
      <point x="422" y="501" type="curve"/>
      <point x="362" y="501"/>
      <point x="302" y="501"/>
      <point x="242" y="501" type="curve"/>
      <point x="118" y="501"/>
      <point x="30" y="434"/>
      <point x="30" y="314" type="curve"/>
      <point x="30" y="180"/>
      <point x="101" y="100"/>
      <point x="201" y="10" type="curve"/>
    </contour>
    <contour>
      <point x="422" y="0"/>
      <point x="422" y="110"/>
      <point x="422" y="0" type="curve"/>
      <point x="466" y="0"/>
      <point x="509" y="0"/>
      <point x="552" y="0" type="curve"/>
      <point x="552" y="110"/>
      <point x="552" y="0"/>
      <point x="552" y="110" type="curve"/>
      <point x="422" y="110"/>
      <point x="552" y="110"/>
      <point x="422" y="110" type="curve"/>
    </contour>
    <contour>
      <point x="492" y="0"/>
      <point x="349" y="0"/>
      <point x="492" y="0" type="curve"/>
      <point x="492" y="237"/>
      <point x="492" y="473"/>
      <point x="492" y="710" type="curve"/>
      <point x="349" y="710"/>
      <point x="492" y="710"/>
      <point x="349" y="710" type="curve"/>
      <point x="349" y="473"/>
      <point x="349" y="237"/>
      <point x="349" y="0" type="curve"/>
    </contour>
    <contour>
      <point x="-25" y="612"/>
      <point x="-25" y="722"/>
      <point x="-25" y="612" type="curve"/>
      <point x="139" y="612"/>
      <point x="444" y="612"/>
      <point x="608" y="612" type="curve"/>
      <point x="608" y="722"/>
      <point x="608" y="612"/>
      <point x="608" y="722" type="curve"/>
      <point x="444" y="722"/>
      <point x="139" y="722"/>
      <point x="-25" y="722" type="curve"/>
    </contour>
  </outline>
</glyph>
<glyph name="bhadeva" format="1">
  <advance width="677"/>
  <unicode hex="092D"/>
  <outline>
    <contour>
      <point x="517" y="110"/>
      <point x="517" y="0"/>
      <point x="517" y="110" type="curve"/>
      <point x="380" y="110"/>
      <point x="517" y="110"/>
      <point x="380" y="110" type="curve"/>
      <point x="380" y="0"/>
      <point x="380" y="110"/>
      <point x="380" y="0" type="curve"/>
      <point x="426" y="0"/>
      <point x="472" y="0"/>
      <point x="517" y="0" type="curve"/>
    </contour>
    <contour>
      <point x="517" y="0"/>
      <point x="517" y="110"/>
      <point x="517" y="0" type="curve"/>
      <point x="561" y="0"/>
      <point x="604" y="0"/>
      <point x="647" y="0" type="curve"/>
      <point x="647" y="110"/>
      <point x="647" y="0"/>
      <point x="647" y="110" type="curve"/>
      <point x="517" y="110"/>
      <point x="647" y="110"/>
      <point x="517" y="110" type="curve"/>
    </contour>
    <contour>
      <point x="587" y="0"/>
      <point x="444" y="0"/>
      <point x="587" y="0" type="curve"/>
      <point x="587" y="237"/>
      <point x="587" y="473"/>
      <point x="587" y="710" type="curve"/>
      <point x="444" y="710"/>
      <point x="587" y="710"/>
      <point x="444" y="710" type="curve"/>
      <point x="444" y="473"/>
      <point x="444" y="237"/>
      <point x="444" y="0" type="curve"/>
    </contour>
    <contour>
      <point x="394" y="612"/>
      <point x="394" y="722"/>
      <point x="394" y="612" type="curve"/>
      <point x="473" y="612"/>
      <point x="621" y="612"/>
      <point x="699" y="612" type="curve"/>
      <point x="699" y="722"/>
      <point x="699" y="612"/>
      <point x="699" y="722" type="curve"/>
      <point x="621" y="722"/>
      <point x="473" y="722"/>
      <point x="394" y="722" type="curve"/>
    </contour>
    <contour>
      <point x="160" y="537"/>
      <point x="82" y="465"/>
      <point x="160" y="537" type="curve"/>
      <point x="151" y="547"/>
      <point x="148" y="562"/>
      <point x="148" y="578" type="curve"/>
      <point x="148" y="596"/>
      <point x="164" y="612"/>
      <point x="181" y="612" type="curve"/>
      <point x="205" y="612"/>
      <point x="209" y="591"/>
      <point x="209" y="562" type="curve"/>
      <point x="209" y="479"/>
      <point x="209" y="397"/>
      <point x="209" y="314" type="curve"/>
      <point x="209" y="314"/>
      <point x="270" y="352"/>
      <point x="270" y="352" type="curve"/>
      <point x="270" y="352"/>
      <point x="315" y="316"/>
      <point x="315" y="316" type="curve"/>
      <point x="315" y="316"/>
      <point x="270" y="263"/>
      <point x="270" y="263" type="curve"/>
      <point x="353" y="263"/>
      <point x="436" y="263"/>
      <point x="519" y="263" type="curve"/>
      <point x="519" y="374"/>
      <point x="519" y="263"/>
      <point x="519" y="374" type="curve"/>
      <point x="434" y="374"/>
      <point x="349" y="374"/>
      <point x="264" y="374" type="curve"/>
      <point x="191" y="374"/>
      <point x="161" y="335"/>
      <point x="161" y="302" type="curve"/>
      <point x="161" y="260"/>
      <point x="190" y="231"/>
      <point x="263" y="231" type="curve"/>
      <point x="319" y="231"/>
      <point x="339" y="260"/>
      <point x="339" y="314" type="curve"/>
      <point x="339" y="397"/>
      <point x="339" y="479"/>
      <point x="339" y="562" type="curve"/>
      <point x="339" y="665"/>
      <point x="289" y="722"/>
      <point x="187" y="722" type="curve"/>
      <point x="93" y="722"/>
      <point x="31" y="666"/>
      <point x="30" y="572" type="curve"/>
      <point x="30" y="524"/>
      <point x="54" y="495"/>
      <point x="82" y="465" type="curve"/>
    </contour>
  </outline>
</glyph>
